<svg xmlns="http://www.w3.org/2000/svg" width="234" height="333" id="svg2" version="1.1"><g id="layer1" transform="translate(0 -719.362)"><g id="g908"><rect rx="8.919" ry="8.946" y="719.74" x=".378" height="332.244" width="233.244" id="rect4266" style="fill:#fff;fill-opacity:1;stroke:gray;stroke-width:.755906px;stroke-linecap:butt;stroke-linejoin:miter;stroke-miterlimit:4;stroke-dasharray:none;stroke-opacity:1"/><path id="path4884-1" d="m117 814.076 28.244-28.336L117 757.403 88.756 785.74Z" style="fill:red;fill-opacity:1;stroke:none;stroke-width:1px"/><path id="path4884-1-4" d="m117 1014.321 28.244-28.336L117 957.648l-28.244 28.337Z" style="fill:red;fill-opacity:1;stroke:none;stroke-width:1px"/><path id="path4884-1-4-5-3" d="m17.206 780.702 9.414-9.445-9.414-9.446-9.415 9.446z" style="fill:red;fill-opacity:1;stroke:none;stroke-width:1px"/><path id="path4884-1-4-5-3-5" d="m216.794 991.022 9.415 9.446-9.415 9.445-9.414-9.445z" style="fill:red;fill-opacity:1;stroke:none;stroke-width:1px"/><g id="text3755-0" style="font-variant:normal;-inkscape-font-specification:&quot;Sans Bold&quot;;letter-spacing:0;word-spacing:0;fill:red;fill-opacity:1;stroke:none;stroke-width:1px;font-family:Levenim MT;font-size:3.77201px;font-style:normal;font-weight:700;font-stretch:100%;line-height:0%" transform="scale(.98105 1.01931)" aria-label="2"><path id="path890" style="stroke-width:1px;font-size:39.3461px;line-height:1.25" d="m27 735.552-.711 5.649H7.94q.423-4.86 3.92-8.588l6.224-5.303q3.247-2.804 3.247-5.629 0-1.882-1.076-2.997-1.056-1.133-2.92-1.133-2.152 0-3.208 1.153-.692.768-1.057 2.363-.365 1.69-.576 1.96-.308.095-.711.095h-2.42q-.424 0-.73-.173-.135-.403-.135-.903 0-4.015 2.632-6.378 2.516-2.267 6.55-2.267 3.747 0 6.13 1.998 2.536 2.113 2.536 5.802 0 3.631-2.805 6.647-.98 1.076-5.572 4.592-3.343 2.594-4.111 4.669h8.953l.153-1.73q.212-.922 1.134-.922h1.92q1.115 0 .98 1.095z"/></g><g id="text3755-2-2" style="font-variant:normal;-inkscape-font-specification:&quot;Sans Bold&quot;;letter-spacing:0;word-spacing:0;fill:red;fill-opacity:1;stroke:none;stroke-width:1px;font-family:Levenim MT;font-size:3.77201px;font-style:normal;font-weight:700;font-stretch:100%;line-height:0%" transform="scale(-.98105 -1.01931)" aria-label="2"><path id="path893" style="stroke-width:1px;font-size:39.3461px;line-height:1.25" d="m-211.519-1002.606-.71 5.648h-18.348q.422-4.86 3.919-8.588l6.225-5.302q3.246-2.805 3.246-5.63 0-1.882-1.075-2.997-1.057-1.133-2.92-1.133-2.152 0-3.209 1.153-.692.768-1.057 2.363-.365 1.69-.576 1.96-.307.095-.71.095h-2.422q-.422 0-.73-.172-.134-.404-.134-.904 0-4.015 2.632-6.378 2.517-2.267 6.551-2.267 3.746 0 6.129 1.998 2.536 2.113 2.536 5.802 0 3.631-2.805 6.647-.98 1.076-5.572 4.592-3.343 2.594-4.111 4.669h8.953l.153-1.73q.212-.922 1.134-.922h1.921q1.114 0 .98 1.095z"/></g></g></g></svg>