<svg xmlns="http://www.w3.org/2000/svg" width="234" height="333" id="svg2" version="1.1"><g id="layer1" transform="translate(0 -719.362)"><g id="g906"><rect rx="8.919" ry="8.946" y="719.74" x=".378" height="332.244" width="233.244" id="rect4266" style="fill:#fff;fill-opacity:1;stroke:gray;stroke-width:.755906px;stroke-linecap:butt;stroke-linejoin:miter;stroke-miterlimit:4;stroke-dasharray:none;stroke-opacity:1"/><path id="path4884-1-7" d="m117 914.199 28.244-28.337L117 857.526l-28.244 28.336Z" style="fill:red;fill-opacity:1;stroke:none;stroke-width:1px"/><path id="path4884-1-4-5-3" d="m17.206 780.702 9.414-9.445-9.414-9.446-9.415 9.446z" style="fill:red;fill-opacity:1;stroke:none;stroke-width:1px"/><path id="path4884-1-4-5-3-5" d="m216.794 991.022 9.415 9.446-9.415 9.445-9.414-9.445z" style="fill:red;fill-opacity:1;stroke:none;stroke-width:1px"/><g id="text3755-0" style="font-variant:normal;-inkscape-font-specification:&quot;Sans Bold&quot;;letter-spacing:0;word-spacing:0;fill:red;fill-opacity:1;stroke:none;stroke-width:1px;font-family:Levenim MT;font-size:3.77201px;font-style:normal;font-weight:700;font-stretch:100%;line-height:0%" transform="scale(.83055 1.20403)" aria-label="A"><path id="path889" style="stroke-width:1px;font-size:32.7663px;line-height:1.25" d="M32.051 627.488h-4.655l-1.84-4.847h-9.6l-1.92 4.847H9.381l9.071-23.534h4.544zm-8.175-9.215-3.12-8.08-3.136 8.08z"/></g><g id="text3755-2-2" style="font-variant:normal;-inkscape-font-specification:&quot;Sans Bold&quot;;letter-spacing:0;word-spacing:0;fill:red;fill-opacity:1;stroke:none;stroke-width:1px;font-family:Levenim MT;font-size:3.77201px;font-style:normal;font-weight:700;font-stretch:100%;line-height:0%" transform="scale(-.83055 -1.20403)" aria-label="A"><path id="path892" style="stroke-width:1px;font-size:32.7663px;line-height:1.25" d="M-249.691-844.008h-4.656l-1.84-4.848h-9.6l-1.92 4.848h-4.655l9.071-23.535h4.544zm-8.176-9.216-3.12-8.08-3.136 8.08z"/></g></g></g></svg>