<svg xmlns="http://www.w3.org/2000/svg" width="234" height="333" id="svg2" version="1.1"><g id="layer1" transform="translate(0 -719.362)"><g id="g922"><rect rx="8.919" ry="8.946" y="719.74" x=".378" height="332.244" width="233.244" id="rect4266" style="fill:#fff;fill-opacity:1;stroke:gray;stroke-width:.755906px;stroke-linecap:butt;stroke-linejoin:miter;stroke-miterlimit:4;stroke-dasharray:none;stroke-opacity:1"/><path id="path4884-1" d="m58.63 814.076 28.243-28.336-28.243-28.337-28.244 28.337Z" style="fill:red;fill-opacity:1;stroke:none;stroke-width:1px"/><path id="path4884-1-4" d="m58.63 1014.321 28.243-28.336-28.243-28.337-28.244 28.337Z" style="fill:red;fill-opacity:1;stroke:none;stroke-width:1px"/><path id="path4884-1-4-1" d="m58.63 947.573 28.243-28.337L58.63 890.9l-28.244 28.336Z" style="fill:red;fill-opacity:1;stroke:none;stroke-width:1px"/><path id="path4884-1-7" d="m58.63 880.825 28.243-28.337-28.243-28.337-28.244 28.337Z" style="fill:red;fill-opacity:1;stroke:none;stroke-width:1px"/><path id="path4884-1-40" d="m175.37 814.076 28.244-28.336-28.244-28.337-28.243 28.337Z" style="fill:red;fill-opacity:1;stroke:none;stroke-width:1px"/><path id="path4884-1-4-9" d="m175.37 1014.321 28.244-28.336-28.244-28.337-28.243 28.337z" style="fill:red;fill-opacity:1;stroke:none;stroke-width:1px"/><path id="path4884-1-4-1-4" d="m175.37 947.573 28.244-28.337L175.37 890.9l-28.243 28.336Z" style="fill:red;fill-opacity:1;stroke:none;stroke-width:1px"/><path id="path4884-1-7-8" d="m175.37 880.825 28.244-28.337-28.244-28.337-28.243 28.337Z" style="fill:red;fill-opacity:1;stroke:none;stroke-width:1px"/><path id="path4884-1-40-8-2" d="m117 914.199 28.244-28.337L117 857.526l-28.244 28.336Z" style="fill:red;fill-opacity:1;stroke:none;stroke-width:1px"/><path id="path4884-1-4-5-3" d="m17.206 780.702 9.414-9.445-9.414-9.446-9.415 9.446z" style="fill:red;fill-opacity:1;stroke:none;stroke-width:1px"/><path id="path4884-1-4-5-3-5" d="m216.794 991.022 9.415 9.446-9.415 9.445-9.414-9.445z" style="fill:red;fill-opacity:1;stroke:none;stroke-width:1px"/><g id="text3755" style="font-variant:normal;-inkscape-font-specification:&quot;Sans Bold&quot;;letter-spacing:0;word-spacing:0;fill:red;fill-opacity:1;stroke:none;stroke-width:1px;font-family:Levenim MT;font-size:3.77201px;font-style:normal;font-weight:700;font-stretch:100%;line-height:0%" transform="scale(.9908 1.0093)" aria-label="9"><path id="path897" style="stroke-width:1px;font-size:39.1948px;line-height:1.25" d="M26.868 734.108q0 5.99-2.125 9.74-2.66 4.709-8.19 4.709-3.235 0-5.34-1.282-2.546-1.57-2.546-4.632 0-.67.938-.67h2.832q.555 0 .938.632.574.938.88 1.206.785.631 2.297.631 2.545 0 3.962-2.373 1.11-1.914 1.244-4.708-2.24 1.78-5.359 1.78-3.962 0-6.316-2.794-2.22-2.622-2.22-6.66 0-4.249 2.43-6.718 2.431-2.488 6.661-2.488 9.914 0 9.914 13.627zm-5.225-4.307q0-2.086-1.13-3.54-1.243-1.608-3.253-1.608-2.067 0-3.292 1.57-1.11 1.435-1.11 3.578 0 2.182 1.091 3.598 1.187 1.55 3.311 1.55 2.105 0 3.292-1.569 1.09-1.416 1.09-3.579z"/></g><g id="text3755-2" style="font-variant:normal;-inkscape-font-specification:&quot;Sans Bold&quot;;letter-spacing:0;word-spacing:0;fill:red;fill-opacity:1;stroke:none;stroke-width:1px;font-family:Levenim MT;font-size:3.77201px;font-style:normal;font-weight:700;font-stretch:100%;line-height:0%" transform="scale(-.9908 -1.0093)" aria-label="9"><path id="path900" style="stroke-width:1px;font-size:39.1948px;line-height:1.25" d="M-209.307-1021.302q0 5.99-2.125 9.742-2.66 4.708-8.19 4.708-3.235 0-5.34-1.283-2.546-1.569-2.546-4.631 0-.67.938-.67h2.833q.555 0 .937.632.574.938.88 1.205.785.632 2.297.632 2.546 0 3.962-2.373 1.11-1.914 1.244-4.708-2.24 1.78-5.359 1.78-3.961 0-6.315-2.794-2.22-2.622-2.22-6.66 0-4.25 2.43-6.718 2.43-2.488 6.66-2.488 9.914 0 9.914 13.626zm-5.225-4.306q0-2.086-1.13-3.54-1.243-1.608-3.253-1.608-2.067 0-3.291 1.57-1.11 1.435-1.11 3.578 0 2.182 1.09 3.598 1.187 1.55 3.311 1.55 2.106 0 3.292-1.569 1.091-1.416 1.091-3.579z"/></g></g></g></svg>