<svg xmlns="http://www.w3.org/2000/svg" width="234" height="333" id="svg2" version="1.1"><g id="layer1" transform="translate(0 -719.362)"><g id="g916"><rect rx="8.919" ry="8.946" y="719.74" x=".378" height="332.244" width="233.244" id="rect4266" style="fill:#fff;fill-opacity:1;stroke:gray;stroke-width:.755906px;stroke-linecap:butt;stroke-linejoin:miter;stroke-miterlimit:4;stroke-dasharray:none;stroke-opacity:1"/><path id="path4884-1" d="m58.63 814.076 28.243-28.336-28.243-28.337-28.244 28.337Z" style="fill:red;fill-opacity:1;stroke:none;stroke-width:1px"/><path id="path4884-1-4" d="m58.63 1014.321 28.243-28.336-28.243-28.337-28.244 28.337Z" style="fill:red;fill-opacity:1;stroke:none;stroke-width:1px"/><path id="path4884-1-7" d="m58.63 914.199 28.243-28.337-28.243-28.336-28.244 28.336Z" style="fill:red;fill-opacity:1;stroke:none;stroke-width:1px"/><path id="path4884-1-40" d="m175.37 814.076 28.244-28.336-28.244-28.337-28.243 28.337Z" style="fill:red;fill-opacity:1;stroke:none;stroke-width:1px"/><path id="path4884-1-4-9" d="m175.37 1014.321 28.244-28.336-28.244-28.337-28.243 28.337z" style="fill:red;fill-opacity:1;stroke:none;stroke-width:1px"/><path id="path4884-1-4-1-4" d="m117 864.137 28.244-28.336L117 807.464l-28.244 28.337Z" style="fill:red;fill-opacity:1;stroke:none;stroke-width:1px"/><path id="path4884-1-7-8" d="m175.37 914.199 28.244-28.337-28.244-28.336-28.243 28.336z" style="fill:red;fill-opacity:1;stroke:none;stroke-width:1px"/><path id="path4884-1-4-5-3" d="m17.206 780.702 9.414-9.445-9.414-9.446-9.415 9.446z" style="fill:red;fill-opacity:1;stroke:none;stroke-width:1px"/><path id="path4884-1-4-5-3-5" d="m216.794 991.022 9.415 9.446-9.415 9.445-9.414-9.445z" style="fill:red;fill-opacity:1;stroke:none;stroke-width:1px"/><g id="text3755-8" style="font-variant:normal;-inkscape-font-specification:&quot;Sans Bold&quot;;letter-spacing:0;word-spacing:0;fill:red;fill-opacity:1;stroke:none;stroke-width:1px;font-family:Levenim MT;font-size:3.77201px;font-style:normal;font-weight:700;font-stretch:100%;line-height:0%" transform="scale(1.02988 .971)" aria-label="7"><path id="path893" style="stroke-width:1px;font-size:41.883px;line-height:1.25" d="m25.848 752.972-7.71 24.173q-.307.94-1.554.94h-3.027q-.94 0-.94-.592 0-.573 3.864-11.575 2.25-6.34 4.48-12.66H11.9q-.062.9-.369 2.618-.286.185-.613.185H8.547q-.982 0-.982-.716 0-.348.593-6.442h17.69Z"/></g><g id="text3755-2-4" style="font-variant:normal;-inkscape-font-specification:&quot;Sans Bold&quot;;letter-spacing:0;word-spacing:0;fill:red;fill-opacity:1;stroke:none;stroke-width:1px;font-family:Levenim MT;font-size:3.77201px;font-style:normal;font-weight:700;font-stretch:100%;line-height:0%" transform="scale(-1.02988 -.971)" aria-label="7"><path id="path896" style="stroke-width:1px;font-size:41.883px;line-height:1.25" d="m-201.364-1071.684-7.71 24.173q-.307.94-1.554.94h-3.027q-.94 0-.94-.593 0-.572 3.865-11.575 2.25-6.34 4.478-12.659h-9.06q-.06.9-.367 2.618-.287.184-.614.184h-2.372q-.982 0-.982-.716 0-.348.593-6.442h17.69z"/></g></g></g></svg>