<svg xmlns="http://www.w3.org/2000/svg" width="234" height="333" id="svg2" version="1.1"><g id="layer1" transform="translate(0 -719.362)"><g id="g933"><rect rx="8.919" ry="8.946" y="719.74" x=".378" height="332.244" width="233.244" id="rect4266" style="fill:#fff;fill-opacity:1;stroke:gray;stroke-width:.755906px;stroke-linecap:butt;stroke-linejoin:miter;stroke-miterlimit:4;stroke-dasharray:none;stroke-opacity:1"/><path id="path4884-1" d="m58.63 814.076 28.243-28.336-28.243-28.337-28.244 28.337Z" style="fill:red;fill-opacity:1;stroke:none;stroke-width:1px"/><path id="path4884-1-4" d="m58.63 1014.321 28.243-28.336-28.243-28.337-28.244 28.337Z" style="fill:red;fill-opacity:1;stroke:none;stroke-width:1px"/><path id="path4884-1-4-1" d="m58.63 947.573 28.243-28.337L58.63 890.9l-28.244 28.336Z" style="fill:red;fill-opacity:1;stroke:none;stroke-width:1px"/><path id="path4884-1-7" d="m58.63 880.825 28.243-28.337-28.243-28.337-28.244 28.337Z" style="fill:red;fill-opacity:1;stroke:none;stroke-width:1px"/><path id="path4884-1-40" d="m175.37 814.076 28.244-28.336-28.244-28.337-28.243 28.337Z" style="fill:red;fill-opacity:1;stroke:none;stroke-width:1px"/><path id="path4884-1-4-9" d="m175.37 1014.321 28.244-28.336-28.244-28.337-28.243 28.337z" style="fill:red;fill-opacity:1;stroke:none;stroke-width:1px"/><path id="path4884-1-4-1-4" d="m175.37 947.573 28.244-28.337L175.37 890.9l-28.243 28.336Z" style="fill:red;fill-opacity:1;stroke:none;stroke-width:1px"/><path id="path4884-1-7-8" d="m175.37 880.825 28.244-28.337-28.244-28.337-28.243 28.337Z" style="fill:red;fill-opacity:1;stroke:none;stroke-width:1px"/><path id="path4884-1-40-8" d="m117 980.947 28.244-28.337L117 924.274 88.756 952.61Z" style="fill:red;fill-opacity:1;stroke:none;stroke-width:1px"/><path id="path4884-1-40-8-2" d="m117 847.45 28.244-28.336L117 790.777l-28.244 28.337Z" style="fill:red;fill-opacity:1;stroke:none;stroke-width:1px"/><g id="text3216-7" style="font-variant:normal;-inkscape-font-specification:&quot;Sans Bold&quot;;letter-spacing:0;word-spacing:0;fill:red;fill-opacity:1;stroke:none;stroke-width:1px;font-family:Levenim MT;font-size:3.77201px;font-style:normal;font-weight:700;font-stretch:100%;line-height:0%" transform="scale(.72185 1.38533)" aria-label="1"><path id="path900" style="stroke-width:1px;font-size:28.9704px;line-height:1.25" d="M23.835 544.63q0 .354-.127.623-.34.113-.735.113h-10.44q-.934 0-.934-.99 0-.17.029-.538.028-.382.028-.58 0-.933.82-.933H16v-13.071h-4.3q-.906 0-.906-.99 0-.212.043-.68.056-.48.056-.72 0-.482.905-.482.255 0 .962.057.708.042 1.104.042 2.263 0 2.744-1.57h2.702v17.414q.948 0 2.037-.057 1.103-.07 1.315-.07.82 0 1.019.438.155.382.155 1.994z"/></g><g id="text3990-14" style="font-variant:normal;-inkscape-font-specification:&quot;Sans Bold&quot;;letter-spacing:0;word-spacing:0;fill:red;fill-opacity:1;stroke:none;stroke-width:1px;font-family:Levenim MT;font-size:3.77201px;font-style:normal;font-weight:700;font-stretch:100%;line-height:0%" transform="scale(.69919 1.43023)" aria-label="0"><path id="path897" style="stroke-width:1px;font-size:27.6593px;line-height:1.25" d="M38.073 518.577q0 9.67-6.685 9.67-6.78 0-6.78-9.724 0-10.089 6.915-10.089 6.55 0 6.55 10.143zm-3.512-.284q0-6.928-3.227-6.928-1.891 0-2.688 2.741-.5 1.73-.5 4.309 0 6.928 3.188 6.928 1.904 0 2.714-2.728.513-1.756.513-4.322z"/></g><path id="path4884-1-4-5-3" d="m17.206 780.702 9.414-9.445-9.414-9.446-9.415 9.446z" style="fill:red;fill-opacity:1;stroke:none;stroke-width:1px"/><g id="text3216-7-2" style="font-variant:normal;-inkscape-font-specification:&quot;Sans Bold&quot;;letter-spacing:0;word-spacing:0;fill:red;fill-opacity:1;stroke:none;stroke-width:1px;font-family:Levenim MT;font-size:3.77201px;font-style:normal;font-weight:700;font-stretch:100%;line-height:0%" transform="scale(-.72185 -1.38533)" aria-label="1"><path id="path906" style="stroke-width:1px;font-size:28.9704px;line-height:1.25" d="M-300.333-734.284q0 .353-.127.622-.34.113-.736.113h-10.44q-.933 0-.933-.99 0-.17.029-.538.028-.381.028-.58 0-.933.82-.933h3.523v-13.07h-4.3q-.906 0-.906-.991 0-.212.042-.679.057-.48.057-.721 0-.481.905-.481.255 0 .962.056.707.043 1.104.043 2.263 0 2.744-1.57h2.702v17.413q.947 0 2.037-.057 1.103-.07 1.315-.07.82 0 1.019.438.155.382.155 1.995z"/></g><g id="text3990-14-6" style="font-variant:normal;-inkscape-font-specification:&quot;Sans Bold&quot;;letter-spacing:0;word-spacing:0;fill:red;fill-opacity:1;stroke:none;stroke-width:1px;font-family:Levenim MT;font-size:3.77201px;font-style:normal;font-weight:700;font-stretch:100%;line-height:0%" transform="scale(-.69919 -1.43023)" aria-label="0"><path id="path903" style="stroke-width:1px;font-size:27.6593px;line-height:1.25" d="M-296.6-720.192q0 9.67-6.686 9.67-6.78 0-6.78-9.724 0-10.09 6.915-10.09 6.55 0 6.55 10.144zm-3.512-.284q0-6.928-3.228-6.928-1.89 0-2.688 2.741-.5 1.729-.5 4.309 0 6.928 3.188 6.928 1.904 0 2.715-2.728.513-1.756.513-4.322z"/></g><path id="path4884-1-4-5-3-5" d="m216.794 991.022 9.415 9.446-9.415 9.445-9.414-9.445z" style="fill:red;fill-opacity:1;stroke:none;stroke-width:1px"/></g></g></svg>